<svg width="20" height="20" viewBox="0 0 20 20" fill="none" xmlns="http://www.w3.org/2000/svg">
<path d="M13.7498 -0.000244141H6.24976C2.79851 -0.000244141 -0.000244141 2.79851 -0.000244141 6.24976V13.7498C-0.000244141 17.201 2.79851 19.9998 6.24976 19.9998H13.7498C17.201 19.9998 19.9998 17.201 19.9998 13.7498V6.24976C19.9998 2.79851 17.201 -0.000244141 13.7498 -0.000244141ZM18.1248 13.7498C18.1248 16.1623 16.1623 18.1248 13.7498 18.1248H6.24976C3.83726 18.1248 1.87476 16.1623 1.87476 13.7498V6.24976C1.87476 3.83726 3.83726 1.87476 6.24976 1.87476H13.7498C16.1623 1.87476 18.1248 3.83726 18.1248 6.24976V13.7498Z" fill="black"/>
<path d="M9.99976 4.99976C7.23851 4.99976 4.99976 7.23851 4.99976 9.99976C4.99976 12.761 7.23851 14.9998 9.99976 14.9998C12.761 14.9998 14.9998 12.761 14.9998 9.99976C14.9998 7.23851 12.761 4.99976 9.99976 4.99976ZM9.99976 13.1248C8.27726 13.1248 6.87476 11.7223 6.87476 9.99976C6.87476 8.27601 8.27726 6.87476 9.99976 6.87476C11.7223 6.87476 13.1248 8.27601 13.1248 9.99976C13.1248 11.7223 11.7223 13.1248 9.99976 13.1248Z" fill="black"/>
<path d="M15.3747 5.29099C15.7427 5.29099 16.041 4.9927 16.041 4.62474C16.041 4.25679 15.7427 3.9585 15.3747 3.9585C15.0068 3.9585 14.7085 4.25679 14.7085 4.62474C14.7085 4.9927 15.0068 5.29099 15.3747 5.29099Z" fill="black"/>
</svg>
